# xmcd
#
# Track frame offsets:
#	150
#	22662
#	46118
#	68710
#	95926
#	119454
#	139726
#	157822
#	184782
#
# Disc length: 2677 seconds
#
# Revision: 0
# Processed by: cddbd v1.5.2PL0 Copyright (c) Steve Scherf et al.
# Submitted via: dBpowerAMP V4.0
#
DISCID=6e0a7309
DTITLE=Mike Wells - Simple Foundations - Disc 3
DYEAR=1900
DGENRE=
TTITLE0=Simple Foundations 03-01
TTITLE1=Simple Foundations 03-02
TTITLE2=Simple Foundations 03-03
TTITLE3=Simple Foundations 03-04
TTITLE4=Simple Foundations 03-05
TTITLE5=Simple Foundations 03-06
TTITLE6=Simple Foundations 03-07
TTITLE7=Simple Foundations 03-08
TTITLE8=Simple Foundations 03-09
EXTD=more at gracehead.com
EXTT0=
EXTT1=
EXTT2=
EXTT3=
EXTT4=
EXTT5=
EXTT6=
EXTT7=
EXTT8=
PLAYORDER=
